<svg xmlns="http://www.w3.org/2000/svg" viewBox="0 0 51 63.737500000000004" x="0px" y="0px"><defs><style>.cls-1{fill:none;stroke:#000;stroke-linecap:round;stroke-linejoin:round;stroke-width:2px;}</style></defs><title>Asset 53</title><g data-name="Layer 2"><g data-name="user interface"><path d="M1.74,12.34A1,1,0,0,1,.79,11,16.1,16.1,0,0,1,11.2.73a1,1,0,1,1,.6,1.91,14.09,14.09,0,0,0-9.11,9A1,1,0,0,1,1.74,12.34Z"/><path d="M35,51H16A16,16,0,0,1,0,35V16q0-.65.05-1.29a1,1,0,1,1,2,.16Q2,15.42,2,16V35A14,14,0,0,0,16,49H35A14,14,0,0,0,49,35V21.92a1,1,0,0,1,2,0V35A16,16,0,0,1,35,51Z"/><path class="cls-1" d="M50,16"/><path d="M14.8,2a1,1,0,0,1-1-.94A1,1,0,0,1,14.71,0c.12,0,.33,0,14.36,0h0a1,1,0,0,1,0,2c-11.33,0-14,0-14.22,0Z"/><path d="M23.65,39.31H12.73a1,1,0,0,1-1-1V27.39a1,1,0,0,1,.29-.71L34.14,4.57a1,1,0,0,1,.71-.29h0a1,1,0,0,1,.71.29l8.59,8.59a1,1,0,0,1-1.41,1.41L34.85,6.69,13.73,27.81v9.5h9.5L47.53,13a2.84,2.84,0,0,0,0-4L42,3.52a2.84,2.84,0,0,0-4,0A1,1,0,0,1,36.61,2.1a4.84,4.84,0,0,1,6.84,0l5.5,5.5a4.84,4.84,0,0,1,0,6.84L24.36,39A1,1,0,0,1,23.65,39.31Z"/><path d="M20,35.64a1,1,0,0,1-.71-.29L12,28.1a1,1,0,0,1,1.41-1.41l7.25,7.25A1,1,0,0,1,20,35.64Z"/></g></g><text x="0" y="65.99000000000001" fill="#000000" font-size="5px" font-weight="bold" font-family="'Helvetica Neue', Helvetica, Arial-Unicode, Arial, Sans-serif"></text><text x="0" y="70.99000000000001" fill="#000000" font-size="5px" font-weight="bold" font-family="'Helvetica Neue', Helvetica, Arial-Unicode, Arial, Sans-serif"></text></svg>